# File created by Blade
# Date/Time:  Tue Apr 07 20:29:34 2015
# Frame Rate: 120.000 fps
#------------------------------------------------------
:FULLY-SPECIFIED
:DEGREES
3099
root 1.932403 34.026610 -5.027467 17.904207 -25.335542 -30.218393
Spine 1.921392 19.418869 21.392624
Head 14.353833 0.708478 2.968729
LeftShoulder -24.887524 41.329795 15.605118
LeftArm 54.455168 -54.788649 -69.359069
LeftForeArm 8.465716 -0.000000 9.319231
LeftHand 8.556768 -0.000000 1.408435
LeftHandThumb1 -26.253704 0.000000 33.147579
RightShoulder 0.470405 6.851342 -22.157044
RightArm 16.259933 14.810774 59.908865
RightForeArm 3.353330 -0.000000 23.124249
RightHand 2.165870 -0.000000 14.462638
RightHandThumb1 -24.326973 -0.000000 -32.862282
LeftUpLeg -7.738472 5.534380 19.388305
LeftLeg 9.900716 -0.000000 -0.000000
LeftFoot -10.417761 14.546324 -15.605628
LeftToeBase -5.134647 -0.000000 0.000000
RightUpLeg -62.363439 -40.925572 -19.460866
RightLeg 92.398109 -0.000000 -0.000000
RightFoot 39.397246 -20.664246 3.172268
RightToeBase 33.180682 -0.000000 -0.000000
3100
root 1.930302 34.051189 -5.047727 18.226355 -24.994019 -30.391934
Spine 1.581480 19.340870 21.498427
Head 14.321029 0.677190 3.045539
LeftShoulder -24.842167 41.329711 15.661175
LeftArm 54.510623 -54.772960 -69.648210
LeftForeArm 8.355521 -0.000000 9.438491
LeftHand 8.583516 -0.000000 1.408925
LeftHandThumb1 -26.253704 0.000000 33.147579
RightShoulder 0.392146 6.828060 -22.127681
RightArm 16.176407 14.808673 59.902281
RightForeArm 3.338844 -0.000000 23.012282
RightHand 2.179360 -0.000000 14.491006
RightHandThumb1 -24.326973 -0.000000 -32.862282
LeftUpLeg -8.057393 5.659887 19.645192
LeftLeg 9.800251 -0.000000 -0.000000
LeftFoot -10.403298 14.210422 -15.957951
LeftToeBase -4.669003 -0.000000 0.000000
RightUpLeg -61.538385 -40.657705 -19.897933
RightLeg 92.578296 -0.000000 -0.000000
RightFoot 39.350875 -20.544688 3.139208
RightToeBase 33.130012 -0.000000 -0.000000
3101
root 1.929556 34.071579 -5.068097 18.531668 -24.672615 -30.512210
Spine 1.251365 19.253233 21.545712
Head 14.212038 0.664034 3.122343
LeftShoulder -24.818938 41.305643 15.690395
LeftArm 54.527482 -54.783010 -69.877166
LeftForeArm 8.146140 -0.000000 9.552942
LeftHand 8.658586 -0.000000 1.384888
LeftHandThumb1 -26.253704 0.000000 33.147579
RightShoulder 0.323345 6.844669 -22.114754
RightArm 16.065497 14.816825 59.912226
RightForeArm 3.359057 -0.000000 22.893337
RightHand 2.174643 -0.000000 14.626815
RightHandThumb1 -24.326973 -0.000000 -32.862282
LeftUpLeg -8.355239 5.743617 19.855765
LeftLeg 9.636323 -0.000000 -0.000000
LeftFoot -10.378554 13.866364 -16.397994
LeftToeBase -4.158732 -0.000000 0.000000
RightUpLeg -60.737368 -40.373514 -20.380504
RightLeg 92.772914 -0.000000 -0.000000
RightFoot 39.308390 -20.357454 3.052413
RightToeBase 33.251802 -0.000000 -0.000000
3102
root 1.930250 34.090144 -5.089894 18.833010 -24.349855 -30.619567
Spine 0.926468 19.142759 21.572893
Head 14.052678 0.648212 3.220968
LeftShoulder -24.801833 41.264648 15.725321
LeftArm 54.519988 -54.810260 -70.093191
LeftForeArm 8.039339 -0.000000 9.656819
LeftHand 8.681356 -0.000000 1.521001
LeftHandThumb1 -26.253704 0.000000 33.147579
RightShoulder 0.299086 6.849522 -22.091184
RightArm 15.940643 14.897348 59.912335
RightForeArm 3.401750 -0.000000 22.796755
RightHand 2.114902 -0.000000 14.720815
RightHandThumb1 -24.326973 -0.000000 -32.862282
LeftUpLeg -8.672326 5.798508 20.053774
LeftLeg 9.495374 -0.000000 -0.000000
LeftFoot -10.341711 13.564898 -16.812854
LeftToeBase -3.763464 -0.000000 0.000000
RightUpLeg -59.965653 -40.085005 -20.848128
RightLeg 92.968279 -0.000000 -0.000000
RightFoot 39.358205 -20.176549 2.924190
RightToeBase 33.259264 -0.000000 -0.000000
3103
root 1.928194 34.105944 -5.110260 19.094296 -24.049824 -30.730655
Spine 0.675085 19.048977 21.609334
Head 13.813837 0.608083 3.324158
LeftShoulder -24.827828 41.247711 15.724321
LeftArm 54.595451 -54.821789 -70.348310
LeftForeArm 7.986992 0.000000 9.760953
LeftHand 8.666707 -0.000000 1.441748
LeftHandThumb1 -26.253704 0.000000 33.147579
RightShoulder 0.243182 6.890235 -22.080884
RightArm 15.790844 14.913223 59.891581
RightForeArm 3.467811 -0.000000 22.705096
RightHand 2.140969 -0.000000 14.803907
RightHandThumb1 -24.326973 -0.000000 -32.862282
LeftUpLeg -8.951532 5.915981 20.249818
LeftLeg 9.387886 -0.000000 -0.000000
LeftFoot -10.318329 13.204334 -17.130197
LeftToeBase -3.277391 -0.000000 0.000000
RightUpLeg -59.182861 -39.772454 -21.321789
RightLeg 93.177751 -0.000000 -0.000000
RightFoot 39.441435 -20.050142 2.829156
RightToeBase 33.284463 -0.000000 -0.000000
